<svg width="418" height="350" viewBox="0 0 418 350" fill="none" xmlns="http://www.w3.org/2000/svg">
<path d="M275.609 66.0977L416.805 207.537C417.819 208.553 417.888 210.13 416.959 211.06L346.165 281.976C345.237 282.906 343.662 282.837 342.649 281.822L208.92 147.862L74.7911 282.222C73.9955 283.019 72.761 283.075 72.0337 282.346L0.511265 210.7C-0.216033 209.972 -0.16074 208.735 0.634792 207.938L142.904 65.4233C143.066 65.2612 143.246 65.1298 143.436 65.0294L207.905 0.44995C208.504 -0.149983 209.475 -0.149983 210.074 0.44995L275.583 66.0719C275.591 66.0804 275.6 66.089 275.609 66.0977Z" fill="url(#paint0_linear_50_39)"/>
<path d="M279.909 277.414L210.058 207.442C209.468 206.851 208.511 206.851 207.92 207.442L138.069 277.414C137.479 278.005 137.479 278.964 138.069 279.555L207.92 349.527C208.511 350.118 209.468 350.118 210.058 349.527L279.909 279.555C280.5 278.964 280.5 278.005 279.909 277.414Z" fill="url(#paint1_linear_50_39)"/>
<defs>
<linearGradient id="paint0_linear_50_39" x1="-7.39173e-07" y1="9.5" x2="366" y2="242" gradientUnits="userSpaceOnUse">
<stop stop-color="#3583ED"/>
<stop offset="1" stop-color="#3583ED" stop-opacity="0"/>
</linearGradient>
<linearGradient id="paint1_linear_50_39" x1="-7.39173e-07" y1="9.5" x2="366" y2="242" gradientUnits="userSpaceOnUse">
<stop stop-color="#3583ED"/>
<stop offset="1" stop-color="#3583ED" stop-opacity="0"/>
</linearGradient>
</defs>
</svg>
